<?xml version="1.0" standalone="no"?> <!DOCTYPE svg PUBLIC "-//W3C//DTD SVG 1.0//EN" "http://www.w3.org/TR/2001/REC-SVG-20010904/DTD/svg10.dtd" > <svg xmlns="http://www.w3.org/2000/svg" width="100%" height="100%">
<defs >
<font id="Duality" horiz-adv-x="348" ><font-face
    font-family="Duality"
    units-per-em="1000"
    panose-1="0 0 4 0 0 0 0 0 0 0"
    ascent="895"
    descent="-199"
    alphabetic="0" />
<missing-glyph horiz-adv-x="245" />
<glyph unicode=" " glyph-name="space" horiz-adv-x="245" />
<glyph unicode="!" glyph-name="exclam" horiz-adv-x="223" d="M203 683Q203 672 197 629Q196 619 183 529Q145 271 145 170H80Q80 181 80 193Q80 303 48 515Q24 670 24 699Q24 738 49 768T114 798Q158 798 182 761Q203 730 203 683ZM183 29Q183 1 160 -21T108
-43Q79 -43 59 -18T38 39Q38 65 62 84Q83 101 111 101Q142 101 162 81T183 29Z" />
<glyph unicode="&quot;" glyph-name="quotedbl" horiz-adv-x="319" d="M302 713Q302 708 280 640T258 513H209V527Q210 581 192 636Q184 657 176 678Q167 704 167 722Q167 749 187 767T234 785Q266 785 284 765T302 713ZM152 713Q152 708 130 640T108 513H59V527Q60
581 42 636Q34 657 26 678Q17 704 17 722Q17 749 37 767T84 785Q116 785 134 765T152 713Z" />
<glyph unicode="#" glyph-name="numbersign" horiz-adv-x="426" d="M420 678L407 629H379Q346 630 308 628Q275 530 258 466L343 470L330 433Q285 434 250 435Q231 361 225 304Q205 303 167 293Q192 384 207 433Q175 431 108 420L69 314Q57 314 32 303L74 415Q32
409 11 409Q3 409 3 428Q3 434 4 447Q38 452 89 456L148 615Q101 608 57 597Q65 619 69 640Q101 648 163 655L206 769Q204 764 212 764Q216 764 224 765T236 766L196 658Q223 660 281 665Q304 729 327 780Q329 780 334 780Q345 780 360 782Q349 749 322 668Q355
670 420 678ZM257 627Q242 626 187 619L127 458Q153 461 205 464Q232 555 257 627Z" />
<glyph unicode="$" glyph-name="dollar" horiz-adv-x="354" d="M336 637Q336 577 279 577Q267 577 258 595Q252 610 247 624Q239 643 229 659Q225 656 225 632Q225 610 226 568Q226 525 226 504Q275 480 293 463Q325 434 325 393Q325 340 295 305Q284 293 233
266Q230 256 230 221Q223 227 206 254H159Q153 248 154 226Q140 240 98 262T40 300Q13 325 13 358Q13 407 62 407Q86 407 95 394Q96 393 109 360Q118 338 131 319Q134 323 134 347Q134 369 134 413T134 480Q85 515 72 528Q40 559 40 596Q40 635 56 657Q76 680 96
703Q117 730 130 769L149 735Q166 733 201 725L212 774Q218 758 237 727Q247 727 265 720Q336 689 336 637ZM202 512V702Q183 700 150 691V535Q164 525 202 512ZM126 561V675Q100 638 100 629Q100 620 110 594T126 561ZM276 377Q276 397 234 440V314Q238 323 259
343Q276 360 276 377ZM210 455Q192 461 156 472V304Q179 296 192 296Q199 296 204 299L210 455Z" />
<glyph unicode="%" glyph-name="percent" horiz-adv-x="602" d="M310 631Q310 559 275 499Q233 430 166 430Q96 430 63 500Q38 553 38 632Q38 694 74 740Q113 791 173 791Q310 791 310 631ZM546 751Q546 728 333 405Q98 47 77 9Q63 27 33 32Q40 39 88 112Q131
178 205 292L408 609Q445 667 518 784Q546 757 546 751ZM586 187Q586 112 561 63Q528 0 460 0Q386 0 350 70Q322 125 322 207Q322 283 351 329Q386 384 458 384Q522 384 557 314Q586 258 586 187ZM206 606Q206 621 205 652T204 698Q204 727 202 735Q198 758 180
758Q138 758 138 719Q138 714 139 703T140 687L135 517Q134 501 141 478Q149 450 162 450Q206 450 206 606ZM485 174Q485 191 480 289Q478 328 476 334Q468 354 439 354Q410 354 410 296Q410 285 410 264T410 232Q410 48 451 48Q485 48 485 174Z" />
<glyph unicode="&amp;" glyph-name="ampersand" horiz-adv-x="724" d="M667 52Q667 -38 555 -38Q501 -38 462 -6Q444 10 396 72Q372 24 330 -6Q285 -38 234 -38Q155 -38 88 33T21 184Q21 256 82 323Q107 350 202 426Q183 467 163 509Q141 562 141 595Q141 650
199 689Q250 723 308 723Q363 723 400 684T437 589Q437 539 406 485Q387 452 348 407Q317 371 317 365Q317 357 396 214Q414 241 442 295Q474 358 491 379Q526 422 574 422Q617 422 642 395T667 324Q667 284 651 271T596 258Q530 258 530 313Q530 346 563 368Q562
370 561 373Q559 373 557 373T552 373Q514 373 450 185Q437 146 437 143Q437 117 485 59T558 0Q572 0 585 11Q562 22 538 33Q525 44 525 80Q525 143 593 143Q627 143 647 115T667 52ZM333 608Q333 632 315 653T273 674Q248 674 228 650T207 600Q207 570 222 532Q235
499 248 466Q275 499 303 531Q333 570 333 608ZM360 138L259 329Q201 272 179 244Q136 188 136 140Q136 93 164 54Q195 11 240 11Q286 11 320 53Q349 87 360 138Z" />
<glyph unicode="&apos;" glyph-name="quotesingle" horiz-adv-x="166" d="M152 713Q152 708 130 640T108 513H59V527Q60 581 42 636Q34 657 26 678Q17 704 17 722Q17 749 37 767T84 785Q116 785 134 765T152 713Z" />
<glyph unicode="(" glyph-name="parenleft" horiz-adv-x="268" d="M202 756Q151 756 126 678Q109 624 109 558Q109 501 106 388T102 219Q102 172 104 136L110 10Q111 -10 113 -51Q115 -68 135 -89T172 -110Q184 -110 184 -117L179 -138H133Q71 -103 46 -53Q25
-9 25 67Q25 69 29 185L46 629Q49 698 91 739T202 788V756Z" />
<glyph unicode=")" glyph-name="parenright" horiz-adv-x="265" d="M250 589Q250 587 246 470L229 26Q226 -42 184 -83T73 -133V-101Q124 -101 149 -23Q166 31 166 97Q166 154 169 267T173 437Q173 483 171 519L164 645Q164 666 162 706Q160 724 140 744T103 765Q91
765 91 773Q91 772 96 793H142Q204 759 228 709Q250 664 250 589Z" />
<glyph unicode="*" glyph-name="asterisk" horiz-adv-x="337" d="M319 566Q319 547 303 533T267 519Q242 519 227 543T196 568L172 561V528Q182 518 204 502V465Q180 442 161 442Q146 442 129 456T111 486Q111 493 133 516T155 546Q155 568 136 568Q128 568 99
555T62 541Q44 541 29 555T13 587Q13 599 28 611T56 623Q64 623 85 607T114 590Q121 590 135 596Q154 605 155 605Q145 642 126 656Q111 662 98 669T84 700Q84 712 94 728T117 744Q165 744 165 707Q165 696 161 675T157 644Q157 635 159 628Q161 628 165 626T177
623Q198 623 201 649T207 700Q216 727 251 727Q267 727 277 714T287 683Q287 677 284 665T281 647Q274 641 240 632Q215 625 199 598Q206 593 217 593Q225 593 241 597T265 601Q283 601 299 592Q319 582 319 566Z" />
<glyph unicode="+" glyph-name="plus" horiz-adv-x="337" d="M319 197H224Q225 148 225 107Q192 106 126 101V197H42Q42 210 37 239T33 284V290Q75 290 126 291V378Q140 378 169 383T213 387H219Q219 345 221 295Q271 296 313 296Q314 263 319 197Z" />
<glyph unicode="," glyph-name="comma" horiz-adv-x="189" d="M168 63Q168 32 144 -6Q117 -46 88 -46H49V-9Q54 -11 63 -11Q107 -11 107 17Q107 21 106 25Q100 25 88 22T70 19Q47 19 31 37T15 79Q15 114 45 133Q71 150 108 150Q137 150 154 120Q168 95 168 63Z" />
<glyph unicode="-" glyph-name="hyphen" horiz-adv-x="337" d="M319 197H42Q42 210 37 239T33 284V290Q80 290 173 293T313 296Q314 263 319 197Z" />
<glyph unicode="." glyph-name="period" horiz-adv-x="180" d="M163 29Q163 1 140 -21T88 -43Q59 -43 39 -18T18 39Q18 65 42 84Q63 101 91 101Q122 101 142 81T163 29Z" />
<glyph unicode="/" glyph-name="slash" horiz-adv-x="357" d="M349 784L66 3L-6 9Q30 59 86 214Q152 403 288 779Q313 779 349 784Z" />
<glyph unicode="0" glyph-name="zero" horiz-adv-x="488" d="M485 370Q485 214 440 110Q379 -33 244 -33Q121 -33 60 100Q14 200 14 340Q14 494 60 596Q123 734 258 734Q385 734 442 608Q485 515 485 370ZM337 337Q337 419 320 515Q296 652 252 652Q161 652 161
379Q161 66 244 66Q291 66 318 181Q337 264 337 337Z" />
<glyph unicode="1" glyph-name="one" horiz-adv-x="334" d="M325 -21H19Q20 0 20 71Q59 73 73 79Q101 89 105 118Q111 168 118 288Q124 389 124 409V516Q110 521 86 521Q61 521 22 516Q23 518 23 522Q23 531 23 549Q22 566 22 575Q22 597 23 624H27Q71 624 77
619Q126 640 126 698Q126 708 124 728H238V91Q248 72 275 67Q284 66 321 65H325V-21Z" />
<glyph unicode="2" glyph-name="two" horiz-adv-x="540" d="M537 115Q537 68 503 22Q467 -27 422 -27Q416 -27 371 -15Q186 33 183 33Q177 33 131 24Q93 16 17 1Q5 46 5 80Q5 213 86 286Q161 336 236 386Q317 447 317 551Q317 591 283 632T211 674Q182 674 148
647T113 592Q128 608 145 608Q169 608 185 593T202 554Q202 525 176 504T120 482Q86 482 60 511T33 576Q33 729 246 729Q355 729 399 683T443 529Q443 424 354 344Q343 334 181 224Q82 158 70 93Q127 138 190 138Q290 138 347 118Q372 107 397 96Q428 82 449 82Q460
82 469 97T478 125Q478 137 471 147Q473 147 530 159Q531 153 534 138T537 115Z" />
<glyph unicode="3" glyph-name="three" horiz-adv-x="465" d="M465 731L262 415Q341 389 390 331Q443 269 443 189Q443 82 375 23Q311 -33 202 -33Q139 -33 92 -9Q32 21 32 77Q32 107 54 133T106 159Q133 159 151 137T169 88Q169 53 114 35Q120 11 186 11Q269
11 301 46T334 165Q334 274 280 312Q237 343 120 347L306 643Q300 647 290 647Q177 647 129 628Q117 624 90 595T57 565Q50 565 36 568T16 571Q35 624 72 731H465Z" />
<glyph unicode="4" glyph-name="four" horiz-adv-x="500" d="M491 25Q491 1 480 -17Q467 -38 445 -38Q426 -38 387 -35T329 -32H169V43Q237 62 241 64Q272 80 272 126Q272 164 258 179T206 194Q195 194 174 193T143 192H10V216Q10 230 91 392Q140 488 187 582T252
729Q283 729 349 734Q412 739 446 739H474V664Q468 664 458 666T442 669Q429 669 382 621V358Q382 302 404 302Q417 302 442 301Q468 301 480 301Q473 238 473 223Q473 209 479 187H392Q387 177 387 155Q387 107 394 90Q406 61 448 61Q454 61 466 63T485 65Q485
59 488 46T491 25ZM265 296V564L108 296H110Q120 296 138 295T166 294H184Q212 294 265 296Z" />
<glyph unicode="5" glyph-name="five" horiz-adv-x="449" d="M440 233Q440 125 377 44Q309 -44 204 -44Q130 -44 71 14T12 145Q12 236 81 236Q106 236 138 216T171 173Q171 146 152 120T105 93Q99 93 84 100T61 108Q82 61 107 43Q134 22 182 22Q247 22 283 89Q314
143 314 214Q314 384 204 384Q164 384 141 364Q122 348 104 307Q75 317 24 330L74 721H390L367 549Q364 551 357 551Q347 551 327 550T298 549Q304 569 303 606V621Q278 636 272 636H176Q154 544 136 427Q146 448 190 463Q228 477 256 477Q335 477 391 392Q440
317 440 233Z" />
<glyph unicode="6" glyph-name="six" horiz-adv-x="462" d="M458 230Q458 138 413 60Q360 -33 274 -33Q8 -33 8 315Q8 469 66 584Q139 729 277 729Q340 729 389 700Q447 665 447 606Q447 580 428 559T384 537Q310 537 310 603Q310 637 354 671Q315 691 293 691Q188
691 156 514Q153 483 140 430L143 378Q186 450 310 450Q405 450 448 285Q458 248 458 230ZM332 221Q332 367 241 367Q188 367 167 333Q151 307 151 250Q151 154 161 114Q182 33 250 33Q309 33 325 104Q332 133 332 221Z" />
<glyph unicode="7" glyph-name="seven" horiz-adv-x="526" d="M526 706Q512 683 463 620Q390 529 364 489Q307 404 298 342Q295 324 287 287Q286 286 278 266Q274 257 274 245V74Q274 13 266 -6Q251 -38 198 -38Q126 -38 126 86V102Q127 225 202 358Q251 443 362
577Q352 577 332 574T302 570Q254 570 158 606Q109 625 96 625Q73 625 73 596Q73 598 76 560Q56 565 18 565Q11 596 11 592Q11 649 47 686T140 723Q181 723 258 699T376 674Q403 674 469 693Q496 701 526 706Z" />
<glyph unicode="8" glyph-name="eight" horiz-adv-x="526" d="M516 217Q516 111 447 42T272 -27Q170 -27 101 35Q28 100 28 200Q28 266 66 313Q91 345 160 392Q123 405 99 449Q78 489 78 532Q78 602 143 665T278 729Q353 729 413 680Q478 627 478 554Q478 438
390 397Q516 336 516 217ZM412 540Q412 589 386 624Q358 663 310 663Q271 663 235 631T198 559Q198 524 248 476T335 428Q353 428 382 474T412 540ZM384 170Q384 213 358 245Q341 264 295 296Q269 314 217 351Q149 300 134 282Q105 245 105 181Q105 117 148 75T256
33Q311 33 347 73T384 170Z" />
<glyph unicode="9" glyph-name="nine" horiz-adv-x="488" d="M468 395Q468 241 410 126Q338 -18 199 -18Q136 -18 87 11Q30 46 30 105Q30 130 48 151T93 173Q167 173 167 108Q167 73 123 39Q161 20 183 20Q288 20 320 197Q323 228 337 281L333 332Q290 261 167
261Q71 261 28 425Q19 462 19 480Q19 573 64 651Q117 743 202 743Q468 743 468 395ZM326 460Q326 556 316 596Q295 677 227 677Q168 677 151 607Q144 577 144 489Q144 343 235 343Q289 343 309 377Q326 404 326 460Z" />
<glyph unicode=":" glyph-name="colon" horiz-adv-x="180" d="M158 329Q158 301 135 279T83 257Q54 257 34 282T13 339Q13 365 37 384Q58 401 86 401Q117 401 137 381T158 329ZM158 29Q158 1 135 -21T83 -43Q54 -43 34 -18T13 39Q13 65 37 84Q58 101 86 101Q117
101 137 81T158 29Z" />
<glyph unicode=";" glyph-name="semicolon" horiz-adv-x="189" d="M158 334Q158 306 135 284T83 262Q54 262 34 287T13 344Q13 370 37 389Q58 406 86 406Q117 406 137 386T158 334ZM168 63Q168 32 144 -6Q117 -46 88 -46H49V-9Q54 -11 63 -11Q107 -11 107 17Q107
21 106 25Q100 25 88 22T70 19Q47 19 31 37T15 79Q15 114 45 133Q71 150 108 150Q137 150 154 120Q168 95 168 63Z" />
<glyph unicode="&lt;" glyph-name="less" horiz-adv-x="316" d="M290 176Q275 158 250 133Q178 187 28 286L232 496Q249 486 279 461Q201 412 98 300Q162 259 290 176Z" />
<glyph unicode="=" glyph-name="equal" horiz-adv-x="337" d="M319 307H42Q42 320 37 349T33 394V400Q80 400 173 403T313 406Q314 373 319 307ZM319 157H42Q42 170 37 199T33 244V250Q80 250 173 253T313 256Q314 223 319 157Z" />
<glyph unicode="&gt;" glyph-name="greater" horiz-adv-x="316" d="M296 321L92 111Q74 121 45 146Q123 194 226 307Q161 348 34 431Q49 449 74 474Q146 420 296 321Z" />
<glyph unicode="?" glyph-name="question" horiz-adv-x="481" d="M452 532Q452 438 398 389Q378 371 298 332Q244 306 244 269Q244 262 263 232T282 195Q282 143 228 143Q134 143 134 211Q134 283 187 322Q235 354 284 386Q337 431 337 518Q337 577 309 622Q277
674 222 674Q126 674 95 601Q136 590 146 583Q167 569 167 534Q167 508 145 490T96 471Q24 471 24 567Q24 663 129 705Q202 734 316 734H320Q386 734 422 662Q452 604 452 532ZM283 29Q283 1 260 -21T208 -43Q179 -43 159 -18T138 39Q138 65 162 84Q183 101 211
101Q242 101 262 81T283 29Z" />
<glyph unicode="@" glyph-name="at" horiz-adv-x="719" d="M663 397Q663 322 619 256Q570 181 497 181Q449 181 434 216Q393 180 341 180Q233 180 233 271Q233 326 271 357T368 388Q382 388 397 386Q400 402 400 419Q400 506 334 506Q306 506 292 477Q306 482
317 482Q350 482 350 438Q350 424 331 412T298 399Q249 399 249 459Q249 536 389 536Q482 536 482 375Q482 357 480 324Q480 292 480 277Q480 211 507 211Q608 247 608 445Q608 549 524 602Q452 647 343 647Q191 647 143 549Q111 486 111 313Q111 66 418 66V30Q230
30 142 98Q41 176 41 355Q41 489 122 587Q211 691 341 691Q663 691 663 397ZM399 260Q397 295 397 291Q397 315 399 347Q385 351 366 351Q313 351 313 285Q313 214 375 214Q392 214 393 230Q397 257 399 260Z" />
<glyph unicode="A" glyph-name="A" horiz-adv-x="579" d="M574 17Q574 2 572 -11H299Q300 14 300 87Q304 87 308 87Q343 87 343 132Q343 188 300 188Q292 188 276 187T251 186Q241 186 232 187Q217 156 217 124Q217 116 236 103T265 87V-13H9Q9 6 9 71Q61 73 86
88Q117 108 122 157Q140 354 195 569Q206 611 206 617Q206 624 204 626T201 632Q186 635 157 643Q162 676 180 739Q188 739 198 734T215 729H376Q381 729 381 737Q381 739 419 739V659Q405 653 381 638V631Q380 591 398 488Q418 375 452 253Q506 61 545 61L572
65Q572 57 573 41T574 17ZM337 298Q324 341 310 384Q291 444 273 460Q265 427 250 360Q244 342 239 307L238 299Q238 274 266 274Q271 274 337 298Z" />
<glyph unicode="B" glyph-name="B" horiz-adv-x="491" d="M481 183Q481 118 458 69Q429 8 372 -4Q319 -15 223 -15Q187 -15 116 -13T8 -11Q14 26 14 71Q120 72 120 194Q120 214 117 252T114 309Q114 354 118 445T123 581Q123 609 102 624T52 637Q58 683 57 722Q100
734 177 734Q206 734 264 732T351 729Q473 729 473 550Q473 412 364 380Q423 378 456 307Q481 251 481 183ZM369 540Q369 579 351 605Q331 635 294 635H236Q240 533 240 510Q240 464 235 428H294Q320 428 346 472Q369 512 369 540ZM347 203Q347 302 251 302Q246
302 239 299T227 295Q230 272 230 246Q230 209 222 116Q229 116 242 110T262 104Q298 104 324 136Q347 166 347 203Z" />
<glyph unicode="C" glyph-name="C" horiz-adv-x="430" d="M426 174Q422 90 375 31Q323 -33 240 -33Q158 -33 97 41Q48 99 22 190Q5 249 5 291Q5 455 51 576Q116 745 251 745Q308 745 362 683T416 562Q416 444 309 444Q284 444 267 474Q251 499 251 526Q251 601
334 601Q335 658 262 658Q188 658 154 536Q131 454 131 351Q131 267 158 186Q194 77 260 77Q294 77 324 119Q337 138 363 192Q383 185 426 174Z" />
<glyph unicode="D" glyph-name="D" horiz-adv-x="502" d="M494 387Q494 213 420 104Q334 -22 168 -22Q150 -22 113 -21T57 -19Q22 -19 2 -21Q7 15 7 71Q104 71 104 179Q104 199 100 239T96 300Q96 311 97 321Q116 461 116 581Q116 609 95 624T45 637Q51 683 51
722Q123 741 168 741Q172 741 178 741Q184 740 187 740Q226 739 303 732Q391 716 433 670T487 533Q494 480 494 387ZM382 409Q382 489 361 549Q331 635 266 635H225V121H249Q302 121 338 194Q363 244 374 312Q382 360 382 409Z" />
<glyph unicode="E" glyph-name="E" horiz-adv-x="476" d="M466 137Q466 1 466 12L214 -5Q206 -6 189 -3T164 1H4Q1 16 1 28Q1 55 21 62T61 76Q86 87 94 119Q96 123 98 169Q105 271 114 482Q118 572 118 581Q118 609 97 624T48 637Q54 683 53 722Q121 739 188 739H457V587Q447
585 431 585Q422 585 398 587Q377 588 366 587Q366 597 355 616T334 636H227Q238 484 238 427H301Q303 440 311 465H408Q379 346 364 258H306Q303 271 295 297H232Q228 248 216 125Q266 115 307 115Q342 115 355 130T371 180H465Q466 159 466 137Z" />
<glyph unicode="F" glyph-name="F" horiz-adv-x="448" d="M453 565H365Q359 601 333 647H242Q242 637 233 582Q221 508 221 469Q221 435 237 429Q241 427 284 427Q319 427 321 465H407Q378 347 363 259H304Q305 265 305 274Q305 280 304 294Q304 307 304 314Q271
324 228 324Q219 324 210 314Q210 235 208 191Q208 184 207 167T205 140Q205 103 230 82T292 65V-18H8Q8 12 9 71H12Q68 69 92 167Q106 227 106 311V495Q106 510 111 538T117 581Q117 609 96 624T47 637Q47 645 48 669Q49 689 49 701Q49 714 47 723H453V565Z" />
<glyph unicode="G" glyph-name="G" horiz-adv-x="531" d="M529 -15Q517 -22 496 -22Q466 -22 431 -2T378 44Q357 16 319 -8Q277 -33 244 -33Q162 -33 102 40Q53 98 26 188Q9 248 9 291Q9 455 55 576Q120 745 255 745Q312 745 366 683T420 562Q420 444 313 444Q288
444 270 474Q255 499 255 526Q255 601 338 601Q339 658 266 658Q192 658 157 536Q135 454 135 351Q135 267 162 186Q198 77 263 77Q306 77 332 125Q354 165 354 211Q354 238 350 247Q344 263 321 263Q312 263 295 261T269 259Q272 267 272 286Q272 304 270 358H523V264Q517
265 509 265Q464 265 436 249Q436 203 450 145Q468 66 496 66Q502 66 512 68T529 71V-15Z" />
<glyph unicode="H" glyph-name="H" horiz-adv-x="574" d="M566 -18H310V70Q348 90 348 178V297H232L221 186Q216 134 216 126Q216 108 224 92Q233 73 250 73Q257 73 264 77Q265 90 265 -18H8Q8 12 9 71Q106 72 106 179Q106 199 102 239T98 300Q98 334 104 396Q113
468 114 493Q117 560 117 581Q117 609 96 624T47 637Q53 683 52 722Q93 734 145 734Q199 734 265 722Q258 698 259 653Q250 654 239 647T227 630Q227 627 231 569Q237 474 237 428H351Q353 488 353 504Q353 628 316 659Q316 683 310 729H560V664Q554 664 544 666T528
669Q515 669 468 621L473 104Q473 88 495 75T534 61Q539 61 550 63T566 65V-18Z" />
<glyph unicode="I" glyph-name="I" horiz-adv-x="326" d="M320 -18H10V65Q27 63 41 63Q87 63 105 91Q119 114 119 162L113 518Q111 531 108 554Q105 609 99 625Q86 665 48 665Q41 665 32 664V734Q98 729 165 723Q245 717 298 717V647Q285 651 274 651Q211 651
211 543Q211 470 216 325T222 107Q222 57 297 57Q311 57 320 60V-18Z" />
<glyph unicode="J" glyph-name="J" horiz-adv-x="488" d="M481 664Q475 664 465 666T449 669Q436 669 413 645T389 606V156Q389 76 331 22T192 -33Q115 -33 58 27T0 165Q0 204 18 229Q39 258 77 258Q159 258 159 173Q159 142 145 122Q128 99 99 99Q93 99 86 103T76
108Q74 108 71 107Q103 66 140 66Q219 66 256 153Q268 183 269 190Q274 384 274 482Q274 530 272 552Q266 637 209 637Q204 637 198 637Q198 641 198 649Q198 638 197 731H481V664Z" />
<glyph unicode="K" glyph-name="K" horiz-adv-x="579" d="M577 63Q577 33 549 9T490 -16Q380 -16 350 78Q339 165 328 252Q316 346 251 346H226V106Q226 91 258 80Q281 72 302 71V-13H7Q8 7 8 71Q105 71 105 179Q105 199 101 239T97 300Q97 311 99 321Q117 461
117 581Q117 609 96 624T47 636Q47 652 49 680T52 723H275Q275 705 275 637Q272 637 269 637Q252 637 234 624T216 595L219 444Q285 510 364 617V637Q344 644 315 642Q315 658 314 731H560V664Q554 664 544 666T528 669Q510 669 421 558Q368 489 314 420Q395 402
425 332Q443 290 451 191T477 55H497Q509 71 510 105Q511 153 512 159Q520 160 536 162T577 164V63Z" />
<glyph unicode="L" glyph-name="L" horiz-adv-x="506" d="M515 158L470 -15H6Q4 -8 4 6Q4 17 5 38T7 71Q104 71 104 179Q104 199 100 239T95 300Q95 311 97 321Q115 461 115 581Q115 609 94 624T45 637Q51 683 50 722Q109 738 157 738Q182 738 231 733T306 728Q306
713 309 682T312 636Q247 619 233 594Q225 579 225 508V309Q225 303 216 184Q214 153 214 152V77H358Q390 77 419 103Q444 126 456 158H515Z" />
<glyph unicode="M" glyph-name="M" horiz-adv-x="748" d="M744 30Q744 20 740 -21H492V43Q558 67 558 141V411L435 50H355L192 422Q195 348 195 137Q195 112 212 89Q230 62 254 62Q262 62 271 65V56Q270 18 277 -10Q105 -10 10 1Q7 17 7 28Q7 55 26 64Q47 70 67
76Q92 87 100 119Q101 123 104 169Q111 272 120 482Q124 572 124 581Q124 609 103 624T54 637Q60 683 59 722Q92 729 143 729Q208 729 236 721Q264 651 319 475Q368 317 406 230L558 734Q609 730 649 730Q688 730 731 734V659Q726 658 716 660T699 663Q638 663
638 515Q638 506 638 492Q639 475 639 469L645 102Q645 99 648 91Q665 55 702 55Q708 55 720 57T739 60Q744 48 744 30Z" />
<glyph unicode="N" glyph-name="N" horiz-adv-x="615" d="M610 680Q575 685 566 685T538 658T518 611L528 -4Q519 -5 500 -8T471 -11Q466 -11 441 28Q395 101 313 257Q222 428 181 521L167 124Q166 101 184 80T224 58Q230 58 237 60Q240 51 240 37Q240 29 239
14T238 -10H8Q9 8 9 71Q106 71 106 179Q106 199 102 239T98 300Q98 311 99 321Q118 461 118 581Q118 609 97 624T47 637Q53 683 53 723Q125 734 156 734Q182 734 215 732Q368 438 459 230V616Q459 633 432 655T387 675V731H610V680Z" />
<glyph unicode="O" glyph-name="O" horiz-adv-x="483" d="M478 370Q478 214 433 110Q371 -33 237 -33Q114 -33 53 100Q7 200 7 340Q7 494 53 596Q115 734 250 734Q377 734 435 608Q478 515 478 370ZM330 337Q330 419 313 515Q289 652 245 652Q154 652 154 379Q154
66 237 66Q284 66 311 181Q330 264 330 337Z" />
<glyph unicode="P" glyph-name="P" horiz-adv-x="506" d="M511 554Q511 452 433 383Q362 321 256 307Q253 313 231 313Q225 246 220 189T215 124Q215 97 250 86Q278 78 307 82Q307 53 308 -10H7Q8 8 8 71Q105 71 105 179Q105 199 101 239T97 300Q97 311 98 321Q117
461 117 581Q117 609 96 624T46 637Q52 683 51 722Q88 734 111 734H172Q326 734 392 713Q511 674 511 554ZM363 540Q363 663 261 663H231V384Q303 397 333 432T363 540Z" />
<glyph unicode="Q" glyph-name="Q" horiz-adv-x="516" d="M534 68Q534 21 505 -11T429 -44Q410 -44 392 -25Q387 -19 367 11Q302 -33 268 -33Q263 -33 254 -33T239 -33Q116 -33 55 100Q9 200 9 340Q9 494 55 596Q118 734 253 734Q380 734 437 608Q480 515 480
370Q480 201 431 108Q425 96 425 93Q425 67 455 39Q487 78 487 103Q487 109 486 114Q502 117 534 126V68ZM352 250Q339 658 261 658Q156 658 156 395Q156 266 164 205Q182 66 239 66Q249 66 266 75Q287 87 293 88Q291 255 263 255Q244 255 242 197Q200 196 189
201Q189 206 187 216T184 233Q184 270 212 302T277 334Q320 334 331 310Q341 280 352 250Z" />
<glyph unicode="R" glyph-name="R" horiz-adv-x="563" d="M561 57Q561 30 523 6Q489 -16 460 -16Q372 -16 357 71Q352 151 348 231Q333 316 243 314L232 313Q226 247 221 191Q216 132 216 124Q216 81 285 81Q295 81 303 82V-10H8Q9 8 9 71Q106 71 106 179Q106
199 102 239T98 300Q98 311 99 321Q118 461 118 581Q118 609 97 624T47 637Q53 683 53 722Q89 734 112 734H174Q327 734 393 713Q512 674 512 554Q512 495 467 438T364 365Q423 344 447 310T471 215Q471 193 470 151T468 87Q489 82 485 82Q513 82 513 186H561V57ZM364
534Q364 663 262 663H234V401H273Q320 401 345 446Q364 483 364 534Z" />
<glyph unicode="S" glyph-name="S" horiz-adv-x="455" d="M447 189Q447 74 376 13T187 -49Q130 -49 72 1T14 107Q14 173 35 204Q61 241 124 241Q201 241 201 165Q201 129 180 106T123 82Q118 82 107 85T90 88Q85 88 80 87Q100 15 188 16L209 17Q327 18 327 137Q327
206 246 270Q171 327 95 384Q14 461 14 562Q14 648 79 694Q135 734 225 734Q305 734 363 705Q436 668 436 597Q436 569 410 545T354 521Q321 521 290 539Q255 560 255 592Q255 617 271 635T311 649Q308 671 276 687Q248 702 223 702Q190 702 165 673T140 611Q140
601 154 568T176 523Q211 474 280 417Q381 333 392 321Q447 261 447 189Z" />
<glyph unicode="T" glyph-name="T" horiz-adv-x="507" d="M509 577H433Q435 588 435 597Q435 660 353 660Q345 660 326 659T298 658V101Q298 81 335 69Q364 60 390 60V-21H96V60Q109 55 121 55Q153 55 170 97Q183 129 183 168V652Q184 652 142 652Q97 652 83 627Q70
596 58 565Q31 574 -22 571Q-12 602 28 734H481Q488 681 509 577Z" />
<glyph unicode="U" glyph-name="U" horiz-adv-x="521" d="M523 664Q517 664 507 666T491 669Q472 669 451 642T431 595L436 162Q436 149 423 116Q399 59 362 21Q315 -27 264 -27Q156 -27 100 100Q58 196 58 321L65 408L80 581Q82 604 63 620T21 637Q15 637 10
636Q10 652 12 680T15 723Q68 723 244 734Q244 741 244 642Q171 630 171 456Q171 442 172 415T173 373Q173 361 172 337Q172 313 172 301Q172 77 266 77Q312 77 336 160Q339 171 343 190L348 587Q349 619 342 629Q332 643 300 642V731H523V664Z" />
<glyph unicode="V" glyph-name="V" horiz-adv-x="571" d="M575 675Q559 672 542 669Q523 663 517 649Q514 643 496 583Q461 464 415 271Q356 23 339 -43H333Q326 -43 248 -49Q226 34 190 193L156 341Q85 641 25 641Q20 641 12 639T-1 637Q1 684 1 702Q1 721 -1
732H241V647Q237 648 233 648Q198 648 198 608Q198 606 267 372Q308 233 327 159L428 622Q431 634 413 650T379 670Q379 681 385 734H575V675Z" />
<glyph unicode="W" glyph-name="W" horiz-adv-x="834" d="M838 675Q822 672 805 667T780 649Q760 614 721 436Q698 322 674 208Q640 45 617 -43H611Q604 -43 527 -49Q506 27 481 171Q454 322 437 390Q420 323 390 174Q362 32 342 -43H336Q329 -43 252 -49Q181
267 163 333Q80 641 23 641Q18 641 10 639T-3 637Q0 684 0 702Q0 721 -3 732H239V647Q235 648 232 648Q196 648 196 608Q196 609 274 353Q312 229 330 159L399 523Q400 525 397 540Q391 575 372 604Q348 641 318 641Q313 641 305 639T292 637Q295 684 295 702Q295
721 292 732Q338 732 430 733T568 734V675Q491 653 491 616Q491 608 494 597Q522 490 605 159L691 622Q694 635 676 651T643 670Q643 681 648 734H838V675Z" />
<glyph unicode="X" glyph-name="X" horiz-adv-x="552" d="M543 664Q506 650 422 537T337 387Q337 382 354 333Q445 85 503 82Q510 87 532 87Q528 77 528 58Q528 37 532 -4Q449 -21 440 -21H276Q278 -18 278 -9Q278 10 277 47T276 103Q308 107 308 129Q308 147
290 198Q273 246 262 266Q251 250 231 201Q210 149 210 135Q210 129 242 97V-18Q112 -14 92 -14Q37 -14 -9 -18Q-9 12 -8 71Q-4 70 2 70Q43 70 79 100Q99 116 162 222T225 348Q225 366 207 420Q180 500 144 555Q91 639 35 637H30Q30 645 31 669Q32 690 32 702Q32
714 29 724H286V654Q259 628 259 608Q259 581 272 533T300 459Q313 481 339 540Q369 607 369 619Q369 645 325 653V731H543V664Z" />
<glyph unicode="Y" glyph-name="Y" horiz-adv-x="565" d="M565 642Q557 642 550 642Q503 642 491 621Q487 615 456 547Q325 264 325 184Q325 178 325 167T325 150Q325 78 390 65V-24Q328 -17 268 -17Q209 -17 156 -24Q164 31 162 71Q167 70 172 70Q222 70 222
170Q222 175 221 186Q221 197 221 203Q221 220 209 270Q159 471 71 621Q58 643 -8 637Q-2 669 -2 693Q-2 715 -8 728H253V642H251Q233 643 199 622Q206 551 291 348Q321 416 351 484Q396 588 396 611Q396 624 374 637T337 647V728H565V642Z" />
<glyph unicode="Z" glyph-name="Z" horiz-adv-x="484" d="M492 169Q464 94 442 -10H5V68Q5 92 246 489Q274 536 334 628Q334 629 334 631T334 634Q334 638 330 641Q314 636 288 636Q277 636 255 637T221 638Q119 638 108 543Q94 547 70 547Q48 547 33 543L77 723H352Q367
723 396 728T441 734H481V654Q481 643 356 435Q248 257 211 199Q187 161 136 90Q136 89 136 87T136 84Q136 81 139 77Q160 88 173 88H368Q391 88 405 121Q416 147 416 175Q411 175 492 169Z" />
<glyph unicode="\" glyph-name="backslash" horiz-adv-x="357" d="M349 19Q313 24 288 24Q221 212 86 589Q54 677 47 695Q22 755 -6 794L66 800L349 19Z" />
<glyph unicode="_" glyph-name="underscore" horiz-adv-x="512" d="M515 -166H-1V-106H515V-166Z" />
<glyph unicode="`" glyph-name="grave" horiz-adv-x="472" d="M370 829L346 794L179 837L234 895L370 829Z" />
<glyph unicode="a" glyph-name="a" horiz-adv-x="365" d="M381 19Q381 4 378 -6Q372 -6 360 -9T340 -12Q315 -12 292 5T260 46Q209 -7 142 -7Q81 -7 44 27T7 121Q7 196 53 241T177 286Q194 286 213 284Q217 305 217 329Q217 451 133 451Q98 451 80 411Q98 418
112 418Q152 418 152 355Q152 337 130 320T89 302Q27 302 27 386Q27 447 88 474Q133 495 203 495Q278 495 304 412Q319 364 319 266Q319 246 318 205T317 143Q317 37 351 37Q362 37 377 46Q381 33 381 19ZM215 106Q212 159 212 151Q212 181 214 229Q197 234 174
234Q141 234 123 203Q107 178 107 142Q107 103 126 74Q148 42 186 42Q207 42 209 66Q213 103 215 106Z" />
<glyph unicode="b" glyph-name="b" horiz-adv-x="407" d="M393 268Q393 -7 239 -7Q173 -7 121 46Q102 15 90 4Q71 -12 41 -12Q34 -12 21 -9T3 -6Q3 0 1 16T-2 41Q73 52 73 158Q73 181 70 230T67 304L70 533Q70 556 53 570T13 582V588Q14 607 8 619Q65 635 180
663Q177 602 177 575Q177 523 179 446Q200 472 207 478Q223 490 246 490Q312 490 356 409Q393 341 393 268ZM292 232Q292 284 272 338Q247 408 205 408Q188 408 167 387V107Q167 90 173 69Q182 42 195 42Q292 42 292 232Z" />
<glyph unicode="c" glyph-name="c" horiz-adv-x="351" d="M345 379Q345 350 328 329T282 307Q258 307 241 325T224 367Q224 385 239 399T272 413Q278 413 284 409T295 404V406Q296 447 226 447Q164 447 141 383Q127 344 127 267Q127 172 134 128Q150 32 200 32Q231
32 257 56Q261 60 298 104Q319 94 335 78Q292 27 278 15Q242 -16 202 -16Q104 -16 59 83Q26 156 26 268Q26 347 67 415Q115 495 188 495Q247 495 292 467Q345 434 345 379Z" />
<glyph unicode="d" glyph-name="d" horiz-adv-x="402" d="M414 20Q414 5 410 -6Q404 -7 392 -9T372 -12Q347 -12 325 5T292 46Q241 -7 175 -7Q21 -7 21 268Q21 341 57 409Q101 490 168 490Q186 490 195 485Q201 481 214 466L239 437Q243 452 243 515Q243 587 185
582V587Q186 607 180 619Q288 648 347 663L348 107Q348 85 368 66T410 46Q414 35 414 20ZM249 283Q249 413 189 413Q122 413 122 227Q122 42 189 42Q249 42 249 162Q249 173 248 194T247 227Q247 237 248 255T249 283Z" />
<glyph unicode="e" glyph-name="e" horiz-adv-x="342" d="M346 325Q346 280 337 263H128Q125 216 125 199Q125 42 196 42Q250 42 291 132H328Q298 -7 179 -7Q20 -7 20 268Q20 357 60 419Q108 490 193 490Q266 490 306 445T346 325ZM256 345Q256 452 196 452Q170
452 149 411Q131 376 131 347V322H255Q256 334 256 345Z" />
<glyph unicode="f" glyph-name="f" horiz-adv-x="340" d="M335 589Q335 555 321 532Q304 504 273 504Q253 504 240 523Q229 539 229 560Q229 583 243 600T281 617Q289 617 297 614Q279 636 266 636Q208 636 195 605Q190 591 190 522Q190 500 186 487Q191 472 215
472Q221 472 233 473T251 475Q255 475 258 475V413H181V222Q181 79 191 70T212 56T232 48T243 35V4H23V45Q76 59 76 130Q76 127 71 404Q56 411 18 409V475H76Q83 673 234 673Q273 673 303 651Q335 626 335 589Z" />
<glyph unicode="g" glyph-name="g" horiz-adv-x="359" d="M380 566Q380 529 333 524Q302 520 284 473Q311 457 327 412Q341 373 341 336Q341 253 263 191Q216 153 112 109Q103 101 103 91Q103 69 133 69Q135 69 205 105T301 141Q326 141 340 98Q349 67 349 33Q349
-27 292 -87Q245 -137 182 -167Q141 -187 116 -187Q17 -187 17 -78Q17 -34 38 -2Q53 21 93 56Q57 73 56 73Q40 84 40 107Q40 134 60 144T101 163Q25 226 25 300Q25 400 60 446Q101 498 196 498Q227 498 253 488Q256 527 281 564Q309 606 346 606Q380 606 380 566ZM236
345Q236 469 180 469Q142 469 133 410Q130 392 130 322Q130 315 129 301T128 278Q128 184 161 184Q211 184 228 245Q236 276 236 345ZM260 13Q260 31 253 50Q243 74 228 74Q183 74 149 20Q119 -28 119 -76Q119 -143 158 -143Q203 -143 234 -85Q260 -36 260 13Z"
/>
<glyph unicode="h" glyph-name="h" horiz-adv-x="480" d="M488 82Q488 48 465 26T406 3Q310 3 310 93V284Q310 323 284 363Q254 408 218 408Q200 408 189 386V82Q189 44 251 51V4H21V55H25Q87 54 87 128Q87 158 81 216T74 304L80 381L93 533Q95 556 77 570T36
582V588Q37 607 31 619Q88 635 203 663Q200 598 200 575Q200 523 202 446Q223 472 230 478Q245 490 269 490Q315 490 363 431T411 324V120Q411 71 428 56Q447 67 447 88Q447 92 446 101T445 115Q445 119 446 123H488V82Z" />
<glyph unicode="i" glyph-name="i" horiz-adv-x="256" d="M199 591Q199 563 176 541T125 519Q95 519 74 546Q55 570 55 601Q55 628 77 645T127 663Q158 663 178 643T199 591ZM247 4H17V55Q25 54 32 54Q87 54 87 134Q87 148 85 176T83 220Q83 241 86 285T89 352V374Q88
398 72 411T31 423L32 428Q32 448 26 459Q82 474 194 504L185 155Q184 131 184 121Q184 44 247 51V4Z" />
<glyph unicode="j" glyph-name="j" horiz-adv-x="264" d="M244 596Q244 568 221 546T170 524Q140 524 119 551Q100 575 100 606Q100 633 122 650T172 668Q203 668 223 648T244 596ZM239 -23Q239 -74 192 -117T93 -160Q43 -160 4 -133Q-40 -104 -40 -56Q-40 -26
-27 -4Q-12 23 16 23Q40 23 61 10Q86 -5 86 -27Q86 -67 66 -79Q54 -87 8 -91Q16 -98 33 -107T59 -117Q89 -117 110 -81Q129 -50 129 -17V396Q129 413 109 424T72 434V439Q73 459 67 470Q124 486 239 514V-23Z" />
<glyph unicode="k" glyph-name="k" horiz-adv-x="489" d="M493 82Q493 48 470 26T412 3Q342 3 323 63Q313 119 303 174Q288 234 228 234Q193 234 193 175Q193 170 194 160T195 145Q195 140 194 130Q194 119 194 114Q194 47 257 51V4H27V55H31Q92 54 92 128Q92
158 86 216T79 304L85 381L98 533Q100 556 82 570T41 582V588Q42 607 36 619Q93 635 208 663Q203 620 201 552Q198 456 197 440Q195 402 195 410L198 292Q207 303 296 392V414Q286 419 268 418V477H454V423H450Q396 424 337 373Q286 329 257 272H264Q344 273 385
204Q418 148 421 60L437 56Q450 65 451 87Q451 105 451 123H493V82Z" />
<glyph unicode="l" glyph-name="l" horiz-adv-x="241" d="M239 4H9V55Q73 58 73 102Q73 107 72 116T71 131V458Q71 470 76 495T81 533Q81 557 64 570T24 582V588Q24 607 18 619Q76 635 191 663Q191 642 181 478Q177 425 177 421V82Q177 44 239 51V4Z" />
<glyph unicode="m" glyph-name="m" horiz-adv-x="679" d="M694 82Q694 48 671 26T613 3Q516 3 516 93V284Q516 329 499 370Q477 422 439 422Q420 422 409 392Q400 368 400 345Q400 332 401 309Q403 282 403 273Q404 232 405 131Q406 48 445 48Q451 48 457 51V3H251Q257
19 257 55H259Q305 54 305 139Q305 150 305 173Q304 196 304 207Q304 294 296 335Q279 422 227 422Q212 422 201 410T188 382Q183 132 183 129Q183 54 212 54Q216 54 221 55Q221 51 221 45Q221 22 226 -1Q77 3 85 3Q40 3 15 -1V55Q22 59 41 59T67 67Q78 76 78 105Q78
118 76 143T73 182Q73 228 81 311Q87 374 87 388T73 412T30 423V429Q30 447 25 460Q82 475 197 504Q194 470 194 465Q194 454 196 446Q231 490 268 490Q295 490 327 465T369 413Q406 455 417 464Q447 490 480 490Q523 490 570 430T617 324V120Q617 71 634 56Q653
67 653 88Q653 92 652 101T651 115Q651 119 652 123H694V82Z" />
<glyph unicode="n" glyph-name="n" horiz-adv-x="476" d="M480 82Q480 48 456 26T398 3Q301 3 301 93V284Q301 329 284 370Q262 422 224 422Q210 422 198 410T186 382Q180 127 180 121Q180 44 243 51V4H13V55Q20 59 38 59T64 67Q76 76 76 105Q76 118 74 143T71
182Q71 228 79 311Q85 374 85 386T68 411T27 423L28 428Q28 448 22 460Q79 475 195 504Q192 470 192 465Q192 454 194 446Q229 490 265 490Q308 490 357 428Q403 369 403 324V120Q403 71 420 56Q439 67 439 88Q439 92 438 101T437 115Q437 119 437 123H480V82Z"
/>
<glyph unicode="o" glyph-name="o" horiz-adv-x="361" d="M358 246Q358 145 319 77Q272 -7 177 -7Q16 -7 16 268Q16 347 57 415Q104 495 177 495Q358 495 358 246ZM267 225Q267 289 254 351Q235 442 199 442Q117 442 117 251Q117 37 180 37Q267 37 267 225Z" />
<glyph unicode="p" glyph-name="p" horiz-adv-x="400" d="M397 218Q397 146 360 77Q316 -4 250 -4Q225 -4 208 13Q206 14 178 49Q175 47 175 28Q175 12 175 -28Q176 -63 175 -83Q175 -102 193 -113Q208 -122 228 -122Q236 -122 242 -120Q235 -140 237 -167Q213
-167 158 -172Q107 -177 79 -177Q29 -177 17 -167V-125Q74 -121 74 -42V-30Q74 -21 70 5Q65 36 65 41Q58 108 58 178V182Q58 208 63 260T68 339Q68 411 38 411Q29 411 -7 402V444Q57 468 119 502H141Q144 483 150 444Q156 447 176 470T243 493Q397 493 397 218ZM296
259Q296 445 228 445Q169 445 169 326Q169 315 170 293T171 259Q171 250 170 232T169 205Q169 74 228 74Q296 74 296 259Z" />
<glyph unicode="q" glyph-name="q" horiz-adv-x="380" d="M384 465Q382 466 380 466Q359 466 346 432Q337 407 337 381V-88Q337 -121 379 -129V-166H178V-124Q181 -124 184 -124Q201 -124 213 -110T226 -78L223 41Q213 27 188 12T149 -3Q54 -3 17 158Q9 196 9
219Q9 494 161 494Q197 494 216 477Q232 463 248 426Q256 433 279 464Q297 489 320 498Q333 503 339 503L384 498V465ZM240 347Q241 383 229 408Q213 441 180 441Q143 441 124 364Q110 310 110 255Q110 203 130 150Q155 80 197 79H203Q216 78 225 87T235 110L240
347Z" />
<glyph unicode="r" glyph-name="r" horiz-adv-x="356" d="M367 389Q367 362 350 332Q330 297 306 297Q274 297 249 319T224 373Q224 418 275 418Q280 418 287 415T297 412V414Q298 442 263 442Q180 442 180 254Q180 237 182 204T184 155Q184 149 184 138Q183 126
183 121Q183 44 246 51V4H16V55L49 62Q68 65 77 79Q83 89 83 97L88 374Q88 397 71 410T30 423L31 428Q31 448 25 460Q78 475 183 504Q183 503 180 464Q178 437 178 408Q187 421 205 447T233 481Q250 495 272 495Q318 495 342 465T367 389Z" />
<glyph unicode="s" glyph-name="s" horiz-adv-x="335" d="M337 128Q337 81 297 32T209 -18Q135 -18 86 4Q19 34 19 99Q19 129 37 151T84 174Q109 174 126 156T144 111Q144 93 129 79T94 64Q87 64 82 68T74 73Q82 29 168 29Q199 29 225 49T251 99Q251 135 198 171Q108
234 101 241Q48 290 48 357Q48 376 59 403Q97 497 173 497Q233 497 278 468Q332 435 332 379Q332 349 314 327T267 305Q242 305 225 323T207 367Q207 386 222 400T257 415Q264 415 270 411T279 406Q280 410 280 413Q280 432 242 442Q215 449 188 449Q166 449 143
431T120 391Q120 347 154 313Q176 291 231 260T304 211Q312 204 324 172T337 128Z" />
<glyph unicode="t" glyph-name="t" horiz-adv-x="243" d="M245 63Q245 38 221 18T171 -2Q94 -2 76 50Q68 72 68 166Q68 231 65 333Q63 415 63 414Q49 422 31 422Q27 422 19 421T5 419Q10 439 10 465Q77 464 114 515Q147 560 145 629H179V479Q198 477 236 470V418H168V82Q168
77 182 65H203V123H245V63Z" />
<glyph unicode="u" glyph-name="u" horiz-adv-x="429" d="M442 30Q442 13 436 -6Q430 -6 418 -9T398 -12Q373 -12 350 5T318 46Q267 -7 200 -7Q145 -7 103 27T61 117V333Q61 359 43 377T-1 394Q1 408 3 436L151 480L147 174Q147 182 154 140Q161 91 167 77Q181
42 215 42Q276 42 276 162Q276 174 275 196T273 230Q273 242 274 266T276 302Q276 409 216 404V441Q284 461 373 485L379 353Q380 345 382 331Q386 307 386 282Q386 255 379 204T371 128Q371 64 441 41Q442 36 442 30Z" />
<glyph unicode="v" glyph-name="v" horiz-adv-x="398" d="M416 438L250 -13Q247 -11 241 -11Q228 -11 203 -12Q178 -12 165 -12Q120 156 87 263Q75 303 49 382Q44 394 21 403T-16 411Q-13 426 -11 455Q37 468 132 491L229 93Q310 371 310 374Q310 390 292 406T257
423Q252 423 247 421V460Q304 476 416 506V438Z" />
<glyph unicode="w" glyph-name="w" horiz-adv-x="635" d="M639 439L488 -5Q486 -4 481 -4Q473 -4 457 -5Q441 -5 432 -5H410L341 273L247 -12Q245 -9 239 -9Q227 -9 204 -10T170 -11Q128 155 98 261Q88 301 64 379Q60 391 39 400T5 408Q7 422 10 451Q53 464 140
487L228 93Q302 369 302 371Q302 387 286 403T254 419Q249 419 245 418V456Q328 478 370 492Q406 361 468 98Q543 374 543 376Q543 392 527 408T494 424Q489 424 485 423V461Q565 478 639 507V439Z" />
<glyph unicode="x" glyph-name="x" horiz-adv-x="432" d="M421 20Q403 8 385 8H227V102Q248 101 248 116Q248 127 234 162T212 208Q205 201 195 168T177 126Q186 116 202 95V8Q121 13 82 13Q43 13 12 8Q12 29 13 69Q14 69 16 69Q49 69 101 122Q121 142 145 179Q164
209 183 239Q178 247 145 322Q121 377 99 396Q80 411 46 411Q39 411 33 410Q33 418 34 439Q35 457 35 468Q35 477 33 487H226V427Q219 417 206 396Q214 365 241 309Q253 320 265 350T289 392Q291 406 256 427V491H421V438Q389 431 383 429Q368 422 355 401Q324
359 266 272Q280 253 307 192Q330 140 355 116Q383 89 416 85V78Q416 79 421 20Z" />
<glyph unicode="y" glyph-name="y" horiz-adv-x="410" d="M417 447Q361 298 244 3Q201 -97 188 -118Q145 -181 79 -181Q49 -181 27 -164Q2 -146 2 -116Q2 -94 21 -75T62 -56Q77 -56 97 -68T118 -95Q118 -127 84 -146Q85 -147 87 -148Q89 -148 92 -148T96 -148Q121
-148 150 -83Q176 -24 176 4Q176 10 170 37Q149 132 114 230Q101 290 87 349Q65 419 8 422Q10 436 12 464Q57 476 146 498L236 122Q312 384 312 386Q312 402 296 417T263 433Q258 433 254 431V469Q306 483 411 512L417 447Z" />
<glyph unicode="z" glyph-name="z" horiz-adv-x="389" d="M380 162Q351 91 329 -7H11Q8 8 -1 38L234 392Q235 410 219 410Q120 410 93 301Q79 305 54 305Q31 305 17 301L62 473H231Q246 473 276 478T322 484H363V407Q327 377 233 232Q199 178 130 73Q149 65 191
65Q245 65 269 88T303 168Q318 168 341 166Q373 163 380 162Z" />
<glyph unicode="|" glyph-name="bar" horiz-adv-x="1414" d="M62 293H63V340H130V368H112V456H130V487H112V524H551V478Q544 491 527 491Q481 491 481 414Q481 338 529 338Q544 338 560 357V340H584V524H958V498H992V524H1352V0H62V293ZM938 340V434Q938 488 891
488Q867 488 860 464Q851 488 832 488Q815 488 805 464V487H773V368H754V340H824V368H805V429Q805 452 824 452Q839 452 839 429V340H890V368H871V429Q871 451 890 451Q905 451 905 429V340H938ZM986 267H930V78H962V200H965L974 78H1032V267H1000V145H997L986
267ZM480 267V78H559L570 99V161L562 175V178L570 192V247L559 267H480ZM826 247V99L836 78H903L915 99V247L904 267H836L826 247ZM271 267V78H309V161H320V78H361V154L346 175V178L361 198V247L350 267H271ZM256 293H289V349Q296 337 313 337Q359 337 359 413Q359
489 311 489Q297 489 280 469V487H256V293ZM475 412Q475 490 420 490Q366 490 366 412Q366 336 420 336Q475 336 475 412ZM1184 209H1222V247L1212 267H1146L1135 247V181L1147 161L1184 152V114H1174V142H1135V99L1146 78H1211L1222 99V171L1209 192L1174 200V233H1184V209ZM256
78V147L230 267H189L166 147V78H203V114H216V78H256ZM464 78V147L440 267H399L376 147V78H414V114H426V78H464ZM169 293H190Q245 299 245 364V487H212V396Q212 370 192 370Q173 370 173 396V487H141V402Q141 338 187 338Q201 338 212 346Q212 323 184 323H169V293ZM678
159H704V192H678V227H704V267H640V78H704V120H678V159ZM786 156H810V189H786V227H810V267H747V78H786V156ZM1064 227V78H1103V227H1124V267H1043V227H1064ZM685 487H670V464Q659 490 637 490Q594 490 594 447Q594 420 616 411Q593 402 593 378Q594 336 638 336Q660
336 672 349T685 389H670Q667 370 645 370Q625 370 625 384Q625 402 645 402H655V420H645Q625 420 625 437Q625 453 645 453Q662 453 670 433H685V487ZM1096 485H1080V464Q1068 490 1050 490Q1000 490 1000 412Q1000 337 1051 337Q1087 337 1096 395H1080Q1077
372 1055 372Q1032 372 1032 412Q1032 453 1055 453Q1078 453 1080 426H1096V485ZM151 120H129V267H91V78H151V120ZM625 78V267H586V78H625ZM740 368H726V433Q726 453 740 453Q746 453 752 447L763 480Q755 487 746 488Q725 488 715 464V487H696V340H740V368ZM943
487V456H958V340H992V487H943ZM286 437Q292 452 307 452Q328 452 328 414Q328 371 306 371Q292 371 286 387V437ZM442 412Q442 372 420 372Q399 372 399 412Q399 453 420 453Q442 453 442 412ZM553 389Q547 375 533 375Q512 375 512 413Q512 456 534 456Q547 456
553 440V389ZM63 368V456H82V368H63ZM864 114V233H875V114H864ZM63 487V524H82V487H63ZM203 142V161L209 211H211L216 161V142H203ZM414 142V161L419 211H422L426 161V142H414ZM519 161H530V114H519V161ZM519 192V233H530V192H519ZM309 192V233H320V192H309Z" />
</font>
</defs>
</svg>
